<?xml version="1.0" encoding="UTF-8"?>
<svg id="Layer_3" data-name="Layer 3" xmlns="http://www.w3.org/2000/svg" version="1.1" viewBox="0 0 720 720">
  <defs>
    <style>
      .cls-1 {
        stroke-linecap: round;
        stroke-width: 5.63px;
      }

      .cls-1, .cls-2, .cls-3 {
        fill: none;
        stroke: #036364;
        stroke-miterlimit: 10;
      }

      .cls-4 {
        fill: #036364;
      }

      .cls-4, .cls-5, .cls-6 {
        stroke-width: 0px;
      }

      .cls-2 {
        stroke-width: 5.63px;
      }

      .cls-3 {
        stroke-width: 5.47px;
      }

      .cls-5 {
        fill: #fff;
      }

      .cls-6 {
        fill: #113029;
      }
    </style>
  </defs>
  <g>
    <g>
      <path class="cls-4" d="M519.1,310.96c48.11-13.73,75.73,21.87,74.99,62.78-.79,43.33-43.54,84.58-84.49,52.38"/>
      <path class="cls-5" d="M524.7,336.6c23.47-3.09,39.61,9.45,41.34,36.01,1.83,28.11-28.89,50-51.94,27.56"/>
    </g>
    <g>
      <path class="cls-4" d="M200.9,310.96c-48.11-13.73-75.73,21.87-74.99,62.78.79,43.33,43.54,84.58,84.49,52.38"/>
      <path class="cls-5" d="M195.3,336.6c-23.47-3.09-39.61,9.45-41.34,36.01-1.83,28.11,28.89,50,51.94,27.56"/>
    </g>
    <path class="cls-4" d="M534.02,311.03c0-80.52-54.71-142.52-128.98-160.49,20.75-15.62,23.5-30.23,16.39-46.84-11.41,18.75-23.19,27.17-39.63,37.01,14.05-19,28.63-29.56,16.58-56.49-13.36,29.33-33.87,46.33-59.74,62.18-85.99,9.5-152.58,75.79-152.58,164.63,0,24.88,5.23,48.53,14.64,69.93-3.13,8.49-4.81,17.37-4.81,26.51,0,60.79,73.49,123.15,164.15,123.15s164.15-62.36,164.15-123.15c0-9.14-1.67-18.02-4.81-26.51,9.41-21.4,14.64-45.05,14.64-69.93Z"/>
    <path class="cls-5" d="M507.02,331.24c10.81-138.54-112-123.87-145.23-72.59-37.48-52.46-155.75-63.52-146.43,68.86,1.34,18.98,9.32,34.48,22.33,46.71-8.82,6.21-10.2,15.48-13.78,27.23-15.02,49.31,39.49,119.44,137.35,119.62,87.77.16,150.06-66.16,137.36-119.62-2.67-11.25-4.32-19.98-12.08-26.12,11.82-11.43,19.07-25.99,20.48-44.09Z"/>
    <g>
      <ellipse class="cls-3" cx="359.05" cy="320.66" rx="45.09" ry="29.13"/>
      <ellipse class="cls-6" cx="359.05" cy="320.95" rx="26.04" ry="27.52"/>
      <ellipse class="cls-5" cx="359.05" cy="320.27" rx="8.25" ry="14.38"/>
    </g>
    <g>
      <path class="cls-2" d="M317.3,372.04c2.58,1.06,4.24,3.95,4.12,7.13-.97,25.28-11.19,58.67-35.41,57.56-28.95-1.33-35.72-52.25-18.45-80.26,1.42-2.3,4-3.19,6.3-2.25l43.44,17.82Z"/>
      <path class="cls-6" d="M315.6,373.53c13.13,7.3-.61,50.73-16.03,60.32-35.79,22.25-35.45-76.64-17.41-76.53l33.44,16.21Z"/>
      <path class="cls-1" d="M318.59,373.18s-25.69-10.51-33.41-14.32c-12.84-6.34-39.45-23.03-39.45-23.03"/>
      <path class="cls-5" d="M306.3,391.55c-.93,13.28-6.09,22.97-11.04,21.93-5.66-1.19-7.37-13.76-4.4-26.25,3.06-12.87,16.37-8.96,15.44,4.32Z"/>
    </g>
    <g>
      <path class="cls-2" d="M400.75,371.86c-2.58,1.06-4.24,3.95-4.12,7.13.97,25.28,11.19,58.67,35.41,57.56,28.95-1.33,35.72-52.25,18.45-80.26-1.42-2.3-4-3.19-6.3-2.25l-43.44,17.82Z"/>
      <path class="cls-6" d="M402.45,373.35c-13.13,7.3.61,50.73,16.03,60.32,35.79,22.25,35.45-76.64,17.41-76.53l-33.44,16.21Z"/>
      <path class="cls-1" d="M399.46,373s25.69-10.51,33.41-14.32c12.84-6.34,39.45-23.03,39.45-23.03"/>
      <path class="cls-5" d="M411.75,391.37c.93,13.28,6.09,22.97,11.04,21.93,5.66-1.19,7.37-13.76,4.4-26.25-3.06-12.87-16.37-8.96-15.44,4.32Z"/>
    </g>
  </g>
  <g>
    <path class="cls-6" d="M59.83,605.75c-4.25-1.15-7.59-2.99-10.02-5.51-2.43-2.52-4.07-5.94-4.92-10.26h19.83c.36,1.63.97,2.9,1.82,3.82.85.91,2.11,1.61,3.78,2.09,1.66.48,3.89.72,6.68.72,3.51,0,6.07-.36,7.69-1.08s2.43-1.78,2.43-3.17c0-.96-.56-1.74-1.69-2.34-1.12-.6-2.55-1.04-4.28-1.33-1.73-.29-4.17-.55-7.32-.79-5.58-.62-10.23-1.34-13.96-2.16-3.73-.82-6.97-2.35-9.71-4.61-2.74-2.25-4.11-5.5-4.11-9.72,0-3.17.9-5.96,2.7-8.39,1.8-2.42,4.88-4.33,9.24-5.72,4.36-1.39,10.21-2.09,17.54-2.09,6.3,0,11.57.59,15.82,1.76,4.25,1.18,7.57,3.07,9.95,5.69,2.38,2.62,3.8,6.01,4.25,10.19h-19.02c-.27-1.58-.77-2.83-1.48-3.74-.72-.91-1.88-1.58-3.47-2.02-1.6-.43-3.79-.65-6.58-.65-2.43,0-4.36.16-5.8.47-1.44.31-2.44.75-3,1.3-.56.55-.84,1.21-.84,1.98,0,1.01.56,1.8,1.69,2.38,1.12.58,2.55,1.01,4.28,1.3,1.73.29,4.22.58,7.45.86,5.58.53,10.22,1.2,13.93,2.02,3.71.82,6.93,2.38,9.65,4.68s4.08,5.64,4.08,10.01c0,3.22-.9,6-2.7,8.35-1.8,2.35-4.94,4.22-9.41,5.62-4.48,1.39-10.56,2.09-18.25,2.09-6.57,0-11.97-.58-16.22-1.73Z"/>
    <path class="cls-6" d="M108.99,570.33h35.14v12.38h-35.14v-12.38ZM115.54,563.35l20.09-4.75v54.65h-20.09v-49.9Z"/>
    <path class="cls-6" d="M159.97,606.01c-4.07-1.58-7.13-4.03-9.2-7.34-2.07-3.31-3.1-7.51-3.1-12.6s1.03-9.49,3.1-12.78c2.06-3.29,5.13-5.72,9.2-7.31,4.07-1.58,9.07-2.38,15.01-2.38s11,.8,15.04,2.41,7.11,4.06,9.2,7.34c2.09,3.29,3.13,7.52,3.13,12.71s-1.04,9.29-3.13,12.6c-2.08,3.31-5.15,5.76-9.2,7.34s-9.06,2.38-15.04,2.38-10.94-.79-15.01-2.38ZM180.29,595.75c1.43-.7,2.51-1.84,3.22-3.42.72-1.58,1.07-3.67,1.07-6.26s-.36-4.82-1.07-6.41c-.72-1.58-1.79-2.71-3.22-3.38-1.43-.67-3.2-1.01-5.31-1.01s-3.82.35-5.28,1.04c-1.45.7-2.54,1.84-3.25,3.42-.72,1.58-1.07,3.7-1.07,6.34s.37,4.68,1.11,6.26c.74,1.58,1.82,2.72,3.25,3.42,1.43.7,3.18,1.04,5.25,1.04s3.88-.35,5.31-1.04Z"/>
    <path class="cls-6" d="M206.58,575.01h18v56.38h-18v-56.38ZM232.15,616.38c-2.81-1.66-4.93-4.06-6.38-7.2-1.45-3.14-2.17-7.14-2.17-11.99,0-5.09.68-9.3,2.04-12.64,1.36-3.34,3.47-5.92,6.34-7.74,2.87-1.82,6.48-2.74,10.84-2.74,3.97,0,7.37.72,10.2,2.16,2.83,1.44,5.02,3.77,6.57,6.98,1.55,3.22,2.33,7.42,2.33,12.6s-.76,9.35-2.27,12.78c-1.51,3.43-3.73,6-6.67,7.7s-6.45,2.56-10.55,2.56-7.49-.83-10.29-2.48ZM241.44,604.86c1.53-1.7,2.3-4.5,2.3-8.39s-.75-6.68-2.27-8.39c-1.51-1.7-3.88-2.56-7.12-2.56-2.16,0-3.97.4-5.44,1.19-1.47.79-2.56,1.98-3.27,3.56s-1.07,3.65-1.07,6.19.37,4.56,1.1,6.19c.73,1.63,1.85,2.83,3.33,3.6,1.49.77,3.29,1.15,5.41,1.15,3.15,0,5.49-.85,7.02-2.56Z"/>
    <path class="cls-6" d="M278.17,579.23h29.28v10.32h-29.28v-10.32ZM283.63,573.41l16.74-3.96v45.54h-16.74v-41.58Z"/>
    <path class="cls-6" d="M314.54,561.95h14.84v45.6h-14.84v-45.6ZM343.6,584.48c-.37-.86-1.01-1.51-1.89-1.95-.89-.44-2.12-.66-3.68-.66-1.82,0-3.34.38-4.56,1.14-1.23.76-2.19,1.95-2.88,3.57-.69,1.62-1.09,3.75-1.2,6.39h-1.23c.21-5.16.93-9.35,2.16-12.57,1.23-3.22,3.02-5.58,5.39-7.08,2.37-1.5,5.42-2.25,9.15-2.25,4.73,0,8.28,1.18,10.65,3.54,2.37,2.36,3.55,5.88,3.55,10.56v22.38h-14.89v-19.68c0-1.4-.19-2.53-.56-3.39Z"/>
    <path class="cls-6" d="M375.91,612.53c-3.38-1.44-5.79-3.48-7.25-6.12-1.46-2.64-2.19-5.92-2.19-9.84,0-6.2,1.83-10.94,5.49-14.22,3.66-3.28,9.31-4.92,16.96-4.92,5.05,0,9.19.73,12.43,2.19s5.59,3.48,7.07,6.06c1.47,2.58,2.21,5.57,2.21,8.97v4.26h-31.73v-7.62h19.84l-2.19,3.9c0-2.04-.26-3.68-.77-4.92-.52-1.24-1.32-2.14-2.4-2.7-1.08-.56-2.55-.84-4.4-.84-2.56,0-4.56.61-6,1.83-1.44,1.22-2.16,3.11-2.16,5.67v2.88c0,2.04.3,3.66.91,4.86.6,1.2,1.52,2.06,2.75,2.58,1.23.52,2.83.78,4.83.78,1.6,0,2.92-.15,3.97-.45,1.05-.3,1.85-.74,2.4-1.32.55-.58.92-1.35,1.09-2.31h13.81c-.46,3.28-1.62,5.92-3.47,7.92s-4.27,3.42-7.25,4.26-6.51,1.26-10.56,1.26c-5.55,0-10.01-.72-13.39-2.16Z"/>
    <path class="cls-6" d="M431.92,564.47h30.17l7.8,37.01h-.06l8.05-37.01h29.54v50.4h-18.63v-34.2h-.82l-8.05,34.2h-20.22l-8.3-34.42h-.82v34.42h-18.63v-50.4Z"/>
    <path class="cls-6" d="M516.56,620.33c-2.88-2.38-4.32-5.89-4.32-10.55v-25.99h19.28v22.03c0,2.16.62,3.78,1.87,4.86,1.24,1.08,3.36,1.62,6.36,1.62,2.03,0,3.81-.37,5.35-1.12,1.54-.74,2.79-1.92,3.73-3.53.94-1.61,1.49-3.85,1.62-6.73h1.59c-.28,5.33-1.36,9.71-3.25,13.14-1.89,3.43-4.46,5.93-7.7,7.49-3.25,1.56-7.06,2.34-11.43,2.34-5.85,0-10.21-1.19-13.09-3.56ZM526.72,639.59c-3.66-.86-6.75-2.34-9.26-4.43-2.51-2.09-4.2-4.86-5.08-8.32h17.55c.55,1.58,1.54,2.7,2.97,3.35,1.43.65,3.41.97,5.94.97,2.76,0,4.96-.23,6.6-.68,1.63-.46,2.86-1.19,3.66-2.2s1.21-2.4,1.21-4.18v-40.32h19.28v36.43c0,4.85-1.06,8.8-3.18,11.84-2.12,3.05-5.38,5.28-9.78,6.7-4.4,1.42-10.12,2.12-17.17,2.12-4.84,0-9.08-.43-12.75-1.3Z"/>
    <path class="cls-6" d="M575.93,578.1h35.14v12.38h-35.14v-12.38ZM582.48,571.12l20.09-4.75v54.65h-20.09v-49.9Z"/>
    <path class="cls-6" d="M616.73,558.96h19v54.72h-19v-54.72ZM653.95,586c-.48-1.03-1.29-1.81-2.43-2.34-1.14-.53-2.71-.79-4.72-.79-2.32,0-4.27.46-5.84,1.37-1.57.91-2.8,2.34-3.69,4.28-.89,1.94-1.4,4.5-1.54,7.67h-1.57c.27-6.19,1.2-11.22,2.77-15.08,1.57-3.86,3.87-6.7,6.9-8.5,3.03-1.8,6.94-2.7,11.72-2.7,6.06,0,10.6,1.42,13.63,4.25,3.03,2.83,4.54,7.06,4.54,12.67v26.86h-19.07v-23.62c0-1.68-.24-3.04-.72-4.07Z"/>
  </g>
</svg>